# xmcd CD database file generated by Grip 2.91
# 
# Track frame offsets:
#       150
#       22392
#       53195
#       69840
#       87740
#       99977
#       112267
#       128927
#       144345
#       161615
#       175780
#       189375
#       207430
# 
# Disc length: 2929 seconds
# 
# Revision: 3
# Processed by: cddbd v1.4b41PL1 Copyright (c) Steve Scherf et al.
# Submitted via: Grip 2.91
# 
DISCID=bd0b6f0d
DTITLE=Various Artist - A Tribute To Magic Sam
DYEAR=1900
DGENRE=
TTITLE0=I'm Tore Down/Just A Little Bit
TTITLE1=Reconsider Baby
TTITLE2=Love Me With A Feeling
TTITLE3=I Just Got To Know
TTITLE4=I Need You So Bad
TTITLE5=Mama, Talk To Your Daughter
TTITLE6=All Your Love
TTITLE7=That's All I Need
TTITLE8=Out Of Bad Luck
TTITLE9=You Belong To Me
TTITLE10=Riding High
TTITLE11=You Don't Love Me
TTITLE12=Feelin' Good
EXTD=
EXTT0=J.W. Williams and The Chi-Town Hustlers with special guests\nBilly Branc
EXTT1=J.W. Williams and The Chi-Town Hustlers with special guests\nBilly Branc
EXTT2=J.W. Williams and The Chi-Town Hustlers with special guests\nBilly Branc
EXTT3=J.W. Williams and The Chi-Town Hustlers with special guests\nBilly Branc
EXTT4=Magic Slim and The Teardrops
EXTT5=Magic Slim and The Teardrops
EXTT6=Magic Slim and The Teardrops
EXTT7=Magic Slim and The Teardrops
EXTT8=Eddie Shaw and The Wolf Gang with special guest\nMighty Joe Young
EXTT9=Eddie Shaw and The Wolf Gang with special guest\nMighty Joe Young
EXTT10=Eddie Shaw and The Wolf Gang with special guest\nMighty Joe Young
EXTT11=Eddie Shaw and The Wolf Gang with special guest\nMighty Joe Young
EXTT12=Eddie Shaw and The Wolf Gang with special guest\nMighty Joe Young
PLAYORDER=
